<svg width="532" height="200" viewBox="0 0 532 200" fill="none" xmlns="http://www.w3.org/2000/svg">
<rect width="532" height="200" fill="black"/>
<path d="M104.425 148V146.5L123.475 70.975H115.975C113.525 70.975 111.575 71.85 110.125 73.6C108.675 75.3 107.65 77.675 107.05 80.725C106.5 83.775 106.225 87.225 106.225 91.075H104.8V69.475H135.175V70.975L116.125 146.5H123.1C125.75 146.5 127.825 145.725 129.325 144.175C130.875 142.625 131.975 140.325 132.625 137.275C133.275 134.175 133.6 130.325 133.6 125.725H135.1V148H104.425ZM153.258 185.65C151.558 185.65 150.008 184.875 148.608 183.325C147.208 181.775 146.108 179.65 145.308 176.95C144.508 174.3 144.108 171.3 144.108 167.95C144.108 165.55 144.483 163.7 145.233 162.4C146.033 161.15 147.183 160.525 148.683 160.525C150.233 160.525 151.383 161.175 152.133 162.475C152.883 163.775 153.258 165.375 153.258 167.275C153.258 168.725 153.008 170.05 152.508 171.25C152.008 172.5 151.508 173.725 151.008 174.925C150.508 176.175 150.258 177.475 150.258 178.825C150.258 180.725 150.558 182.075 151.158 182.875C151.808 183.675 152.608 184.075 153.558 184.075C154.458 184.075 155.233 183.475 155.883 182.275C156.533 181.075 157.058 179.625 157.458 177.925C157.908 176.225 158.258 174.625 158.508 173.125L163.233 148.525L146.283 70.975H140.133V69.475H163.758V70.975H157.908L168.783 124L178.983 70.975H173.283V69.475H186.483V70.975H180.633L165.108 148.525L160.083 173.725C159.733 175.625 159.283 177.5 158.733 179.35C158.183 181.2 157.483 182.7 156.633 183.85C155.783 185.05 154.658 185.65 153.258 185.65ZM189.347 148V146.5H195.872V70.975H189.347V69.475H207.122V80.575C207.672 78.875 208.447 77.15 209.447 75.4C210.497 73.6 211.847 72.1 213.497 70.9C215.147 69.65 217.172 69.025 219.572 69.025C221.972 69.025 224.247 69.6 226.397 70.75C228.597 71.85 230.397 74.025 231.797 77.275C233.247 80.525 233.972 85.375 233.972 91.825V146.5H240.197V148H217.022V146.5H222.722V93.325C222.722 85.775 222.172 80.25 221.072 76.75C219.972 73.25 218.247 71.5 215.897 71.5C214.747 71.5 213.647 72.05 212.597 73.15C211.597 74.2 210.672 75.55 209.822 77.2C209.022 78.85 208.372 80.525 207.872 82.225C207.422 83.925 207.172 85.425 207.122 86.725V146.5H212.972V148H189.347ZM262.411 149.35C260.561 149.35 258.736 148.975 256.936 148.225C255.186 147.525 253.711 146.15 252.511 144.1C251.361 142.05 250.786 139.05 250.786 135.1V70.975H243.211V69.475H250.786C252.086 69.475 253.361 68.45 254.611 66.4C255.861 64.35 256.986 61.7 257.986 58.45C259.036 55.15 259.786 51.675 260.236 48.025H262.036V69.475H271.411V70.975H262.036V142.675C262.036 144.425 262.436 145.675 263.236 146.425C264.086 147.125 264.911 147.475 265.711 147.475C266.711 147.475 267.736 147.175 268.786 146.575C269.836 145.925 270.536 145.4 270.886 145L271.711 146.05C270.761 147 269.486 147.775 267.886 148.375C266.286 149.025 264.461 149.35 262.411 149.35ZM277.091 148V146.5H283.616V37H277.091V35.5H294.866V79.6C295.066 78.2 295.666 76.675 296.666 75.025C297.666 73.325 299.066 71.9 300.866 70.75C302.716 69.55 304.941 68.95 307.541 68.95C310.091 68.95 312.491 69.6 314.741 70.9C316.991 72.15 318.816 74.5 320.216 77.95C321.666 81.35 322.391 86.3 322.391 92.8V146.5H328.616V148H305.516V146.5H311.141V94.225C311.141 86.425 310.641 80.65 309.641 76.9C308.691 73.15 306.966 71.275 304.466 71.275C302.716 71.275 301.116 72.025 299.666 73.525C298.266 75.025 297.141 76.95 296.291 79.3C295.441 81.65 294.966 84.125 294.866 86.725V146.5H300.491V148H277.091ZM355.302 149.575C351.702 149.575 348.602 148.425 346.002 146.125C343.452 143.825 341.352 140.725 339.702 136.825C338.102 132.925 336.902 128.525 336.102 123.625C335.352 118.725 334.977 113.7 334.977 108.55C334.977 101.85 335.527 96.025 336.627 91.075C337.727 86.075 339.202 81.95 341.052 78.7C342.952 75.45 345.077 73.025 347.427 71.425C349.827 69.825 352.277 69.025 354.777 69.025C357.727 69.025 360.327 69.95 362.577 71.8C364.877 73.65 366.777 76.15 368.277 79.3C369.827 82.45 370.977 86.025 371.727 90.025C372.527 94.025 372.927 98.15 372.927 102.4C372.927 103.2 372.927 104 372.927 104.8C372.927 105.6 372.902 106.425 372.852 107.275H345.327V105.775H361.677C361.677 98.525 361.477 92.25 361.077 86.95C360.727 81.65 360.052 77.575 359.052 74.725C358.052 71.875 356.627 70.45 354.777 70.45C353.027 70.45 351.527 71.8 350.277 74.5C349.027 77.2 348.077 81.3 347.427 86.8C346.777 92.25 346.452 99.125 346.452 107.425C346.452 112.675 346.527 117.725 346.677 122.575C346.827 127.425 347.227 131.75 347.877 135.55C348.577 139.3 349.627 142.275 351.027 144.475C352.477 146.675 354.452 147.775 356.952 147.775C360.802 147.775 363.852 146.75 366.102 144.7C368.402 142.6 369.927 140.325 370.677 137.875L371.952 138.625C370.852 141.575 368.952 144.15 366.252 146.35C363.552 148.5 359.902 149.575 355.302 149.575ZM375.187 148V146.5H381.112L394.762 108.775L400.612 101.275L411.037 70.975H404.812V69.475H418.687V70.975H412.837L401.662 102.85L395.812 110.35L382.912 146.5H389.437V148H375.187ZM399.562 148V146.5H405.037L381.487 70.975H376.612V69.475H393.112H398.587V70.975H393.262L417.037 146.5H421.612V148H405.037H399.562Z" fill="white"/>
</svg>
