<svg width="532" height="181" viewBox="0 0 532 181" fill="none" xmlns="http://www.w3.org/2000/svg">
<path d="M109.512 143V141.5L128.562 65.975H121.062C118.612 65.975 116.662 66.85 115.212 68.6C113.762 70.3 112.737 72.675 112.137 75.725C111.587 78.775 111.312 82.225 111.312 86.075H109.887V64.475H140.262V65.975L121.212 141.5H128.187C130.837 141.5 132.912 140.725 134.412 139.175C135.962 137.625 137.062 135.325 137.712 132.275C138.362 129.175 138.687 125.325 138.687 120.725H140.187V143H109.512ZM158.345 180.65C156.645 180.65 155.095 179.875 153.695 178.325C152.295 176.775 151.195 174.65 150.395 171.95C149.595 169.3 149.195 166.3 149.195 162.95C149.195 160.55 149.57 158.7 150.32 157.4C151.12 156.15 152.27 155.525 153.77 155.525C155.32 155.525 156.47 156.175 157.22 157.475C157.97 158.775 158.345 160.375 158.345 162.275C158.345 163.725 158.095 165.05 157.595 166.25C157.095 167.5 156.595 168.725 156.095 169.925C155.595 171.175 155.345 172.475 155.345 173.825C155.345 175.725 155.645 177.075 156.245 177.875C156.895 178.675 157.695 179.075 158.645 179.075C159.545 179.075 160.32 178.475 160.97 177.275C161.62 176.075 162.145 174.625 162.545 172.925C162.995 171.225 163.345 169.625 163.595 168.125L168.32 143.525L151.37 65.975H145.22V64.475H168.845V65.975H162.995L173.87 119L184.07 65.975H178.37V64.475H191.57V65.975H185.72L170.195 143.525L165.17 168.725C164.82 170.625 164.37 172.5 163.82 174.35C163.27 176.2 162.57 177.7 161.72 178.85C160.87 180.05 159.745 180.65 158.345 180.65ZM194.434 143V141.5H200.959V65.975H194.434V64.475H212.209V75.575C212.759 73.875 213.534 72.15 214.534 70.4C215.584 68.6 216.934 67.1 218.584 65.9C220.234 64.65 222.259 64.025 224.659 64.025C227.059 64.025 229.334 64.6 231.484 65.75C233.684 66.85 235.484 69.025 236.884 72.275C238.334 75.525 239.059 80.375 239.059 86.825V141.5H245.284V143H222.109V141.5H227.809V88.325C227.809 80.775 227.259 75.25 226.159 71.75C225.059 68.25 223.334 66.5 220.984 66.5C219.834 66.5 218.734 67.05 217.684 68.15C216.684 69.2 215.759 70.55 214.909 72.2C214.109 73.85 213.459 75.525 212.959 77.225C212.509 78.925 212.259 80.425 212.209 81.725V141.5H218.059V143H194.434ZM267.498 144.35C265.648 144.35 263.823 143.975 262.023 143.225C260.273 142.525 258.798 141.15 257.598 139.1C256.448 137.05 255.873 134.05 255.873 130.1V65.975H248.298V64.475H255.873C257.173 64.475 258.448 63.45 259.698 61.4C260.948 59.35 262.073 56.7 263.073 53.45C264.123 50.15 264.873 46.675 265.323 43.025H267.123V64.475H276.498V65.975H267.123V137.675C267.123 139.425 267.523 140.675 268.323 141.425C269.173 142.125 269.998 142.475 270.798 142.475C271.798 142.475 272.823 142.175 273.873 141.575C274.923 140.925 275.623 140.4 275.973 140L276.798 141.05C275.848 142 274.573 142.775 272.973 143.375C271.373 144.025 269.548 144.35 267.498 144.35ZM282.178 143V141.5H288.703V32H282.178V30.5H299.953V74.6C300.153 73.2 300.753 71.675 301.753 70.025C302.753 68.325 304.153 66.9 305.953 65.75C307.803 64.55 310.028 63.95 312.628 63.95C315.178 63.95 317.578 64.6 319.828 65.9C322.078 67.15 323.903 69.5 325.303 72.95C326.753 76.35 327.478 81.3 327.478 87.8V141.5H333.703V143H310.603V141.5H316.228V89.225C316.228 81.425 315.728 75.65 314.728 71.9C313.778 68.15 312.053 66.275 309.553 66.275C307.803 66.275 306.203 67.025 304.753 68.525C303.353 70.025 302.228 71.95 301.378 74.3C300.528 76.65 300.053 79.125 299.953 81.725V141.5H305.578V143H282.178ZM360.389 144.575C356.789 144.575 353.689 143.425 351.089 141.125C348.539 138.825 346.439 135.725 344.789 131.825C343.189 127.925 341.989 123.525 341.189 118.625C340.439 113.725 340.064 108.7 340.064 103.55C340.064 96.85 340.614 91.025 341.714 86.075C342.814 81.075 344.289 76.95 346.139 73.7C348.039 70.45 350.164 68.025 352.514 66.425C354.914 64.825 357.364 64.025 359.864 64.025C362.814 64.025 365.414 64.95 367.664 66.8C369.964 68.65 371.864 71.15 373.364 74.3C374.914 77.45 376.064 81.025 376.814 85.025C377.614 89.025 378.014 93.15 378.014 97.4C378.014 98.2 378.014 99 378.014 99.8C378.014 100.6 377.989 101.425 377.939 102.275H350.414V100.775H366.764C366.764 93.525 366.564 87.25 366.164 81.95C365.814 76.65 365.139 72.575 364.139 69.725C363.139 66.875 361.714 65.45 359.864 65.45C358.114 65.45 356.614 66.8 355.364 69.5C354.114 72.2 353.164 76.3 352.514 81.8C351.864 87.25 351.539 94.125 351.539 102.425C351.539 107.675 351.614 112.725 351.764 117.575C351.914 122.425 352.314 126.75 352.964 130.55C353.664 134.3 354.714 137.275 356.114 139.475C357.564 141.675 359.539 142.775 362.039 142.775C365.889 142.775 368.939 141.75 371.189 139.7C373.489 137.6 375.014 135.325 375.764 132.875L377.039 133.625C375.939 136.575 374.039 139.15 371.339 141.35C368.639 143.5 364.989 144.575 360.389 144.575ZM380.274 143V141.5H386.199L399.849 103.775L405.699 96.275L416.124 65.975H409.899V64.475H423.774V65.975H417.924L406.749 97.85L400.899 105.35L387.999 141.5H394.524V143H380.274ZM404.649 143V141.5H410.124L386.574 65.975H381.699V64.475H398.199H403.674V65.975H398.349L422.124 141.5H426.699V143H410.124H404.649Z" fill="white"/>
</svg>
