<svg width="100" height="100" viewBox="0 0 100 100" fill="none" xmlns="http://www.w3.org/2000/svg">
<path d="M44.1864 11.9661L7.29411 27.1705C5.24251 28.0161 5.26377 30.9185 7.32823 31.7335L44.3749 46.3657C47.6302 47.6515 51.2551 47.6515 54.5098 46.3657L91.5571 31.7335C93.621 30.9185 93.6428 28.0161 91.5907 27.1705L54.6989 11.9661C51.3329 10.579 47.5519 10.579 44.1864 11.9661Z" fill="#FFBF00"/>
<path d="M52.7285 54.357V90.9102C52.7285 92.6489 54.4887 93.8394 56.1113 93.1987L97.3926 77.2395C98.3351 76.8674 98.9531 75.9605 98.9531 74.951V38.3978C98.9531 36.6591 97.1929 35.4686 95.5703 36.1093L54.289 52.0685C53.3471 52.4406 52.7285 53.3475 52.7285 54.357Z" fill="#26B5F8"/>
<path d="M43.089 56.2443L30.8377 62.1359L29.5937 62.7348L3.7318 75.0769C2.09242 75.8646 0 74.6747 0 72.8608V38.5526C0 37.8963 0.33783 37.3298 0.790881 36.9031C0.979932 36.7142 1.19415 36.5588 1.41676 36.4357C2.03481 36.0663 2.9163 35.9677 3.6658 36.263L42.8832 51.7392C44.8766 52.5269 45.0333 55.3089 43.089 56.2443Z" fill="#ED3049"/>
<path d="M43.0892 56.2443L30.8378 62.1359L0.791016 36.9031C0.980066 36.7142 1.19429 36.5588 1.4169 36.4357C2.03495 36.0663 2.91644 35.9677 3.66593 36.263L42.8834 51.7392C44.8768 52.5269 45.0334 55.3089 43.0892 56.2443Z" fill="black" fill-opacity="0.25"/>
</svg>
