<svg width="100" height="100" viewBox="0 0 100 100" fill="none" xmlns="http://www.w3.org/2000/svg">
<path fill-rule="evenodd" clip-rule="evenodd" d="M0 6V34.2857L12.5 46.8571V28C18.5565 34.3104 25.9495 42.8696 31.25 50C40.625 62.5714 43.75 69.381 43.75 94H43.848C43.848 94.0252 43.8476 94.0492 43.8476 94.0744H56.3476C56.3476 69.4554 59.8965 61.9097 68.7715 50.0088C71.3224 46.5882 78.6209 37.6954 87.5 28V46.8571L100 34.2857V6H71.875L59.375 18.5714H78.125C71.9113 25.3448 63.0912 35.7667 57.5977 43.1603C54.5287 47.2757 52.0401 51.2721 50.0664 55.5959C48.0872 51.2433 45.5867 47.225 42.4999 43.0859C40.2628 40.0859 32.7068 28.8988 23.2847 18.5714H40.625L28.125 6H0Z" fill="white"/>
</svg>
