<svg width="102" height="102" viewBox="0 0 102 102" fill="none" xmlns="http://www.w3.org/2000/svg">
<g clip-path="url(#clip0_1184_8542)">
<path d="M6.58664 81.5373L6.59347 81.1623C6.63747 78.7249 7.16122 76.3201 8.13481 74.0852C9.1084 71.8503 10.5127 69.829 12.2676 68.137C14.0225 66.4449 16.0936 65.1151 18.3625 64.2236C20.6314 63.3321 23.0537 62.8963 25.4911 62.9411L25.866 62.9479C29.7242 63.0198 33.4639 64.2931 36.5644 66.5905C39.6648 68.8879 41.9716 72.095 43.1635 75.7652L62.9446 76.1256C64.6019 76.1558 66.2034 75.5264 67.3966 74.3759C68.5899 73.2253 69.2772 71.6479 69.3074 69.9905L69.3263 68.9563C65.7019 67.6315 62.581 65.2094 60.3981 62.0273C58.2152 58.8453 57.0789 55.0616 57.1477 51.2034L57.1545 50.8284C57.2264 46.9703 58.4997 43.2305 60.7971 40.1301C63.0945 37.0296 66.3016 34.7228 69.9718 33.531L69.9906 32.4968C70.0208 30.8394 69.3914 29.238 68.2408 28.0447C67.0903 26.8515 65.5128 26.1641 63.8555 26.1339L44.0744 25.7735C42.7496 29.3978 40.3275 32.5188 37.1454 34.7017C33.9634 36.8846 30.1797 38.0208 26.3215 37.9521L25.9465 37.9452C23.5092 37.9012 21.1043 37.3775 18.8694 36.4039C16.6345 35.4303 14.6132 34.026 12.9212 32.2711C11.2291 30.5162 9.89931 28.4451 9.00779 26.1762C8.11627 23.9073 7.68047 21.485 7.7253 19.0476L7.73213 18.6727C7.77613 16.2353 8.29989 13.8305 9.27347 11.5956C10.2471 9.36063 11.6514 7.33941 13.4063 5.64733C15.1612 3.95525 17.2322 2.62547 19.5011 1.73395C21.77 0.842435 24.1924 0.406641 26.6297 0.451464L27.0047 0.458296C30.8629 0.53017 34.6026 1.80347 37.703 4.10087C40.8035 6.39827 43.1103 9.60538 44.3022 13.2756L70.4572 13.7521C73.7387 13.8119 76.862 15.1729 79.1401 17.5355C81.4182 19.8982 82.6645 23.069 82.6047 26.3505L82.4697 33.7587C86.094 35.0835 89.215 37.5056 91.3979 40.6877C93.5808 43.8698 94.717 47.6534 94.6483 51.5116L94.6414 51.8866C94.5696 55.7448 93.2963 59.4845 90.9989 62.5849C88.7015 65.6854 85.4944 67.9922 81.8242 69.1841L81.6892 76.5922C81.6294 79.8737 80.2685 82.9971 77.9058 85.2752C75.5432 87.5533 72.3723 88.7995 69.0908 88.7397L42.9358 88.2631C41.611 91.8874 39.1889 95.0084 36.0068 97.1913C32.8247 99.3742 29.0411 100.51 25.1828 100.442L24.8079 100.435C22.3705 100.391 19.9657 99.8671 17.7307 98.8935C15.4958 97.9199 13.4746 96.5156 11.7825 94.7607C10.0904 93.0058 8.76064 90.9348 7.86913 88.6659C6.97761 86.397 6.54181 83.9746 6.58664 81.5373ZM32.7246 19.3156C32.7471 18.0797 32.4026 16.8649 31.7347 15.8247C31.0668 14.7846 30.1054 13.9658 28.9722 13.4721C27.8389 12.9783 26.5847 12.8316 25.3682 13.0507C24.1516 13.2697 23.0273 13.8446 22.1374 14.7026C21.2476 15.5606 20.6321 16.6632 20.3689 17.871C20.1057 19.0788 20.2066 20.3375 20.6587 21.4879C21.1109 22.6384 21.8941 23.629 22.9092 24.3343C23.9243 25.0397 25.1258 25.4282 26.3617 25.4507C28.0191 25.4809 29.6205 24.8515 30.8138 23.701C32.007 22.5504 32.6944 20.973 32.7246 19.3156ZM82.1469 51.4714C82.1695 50.2354 81.825 49.0206 81.1571 47.9804C80.4891 46.9403 79.5278 46.1216 78.3945 45.6278C77.2613 45.134 76.0071 44.9874 74.7905 45.2064C73.574 45.4254 72.4497 46.0003 71.5598 46.8583C70.6699 47.7163 70.0545 48.8189 69.7913 50.0267C69.5281 51.2345 69.6289 52.4932 70.0811 53.6437C70.5333 54.7942 71.3164 55.7847 72.3316 56.4901C73.3467 57.1954 74.5482 57.584 75.7841 57.6065C77.4414 57.6367 79.0429 57.0073 80.2361 55.8567C81.4294 54.7062 82.1167 53.1287 82.1469 51.4714ZM31.5859 81.8053C31.6084 80.5693 31.2639 79.3545 30.596 78.3143C29.9281 77.2742 28.9667 76.4555 27.8335 75.9617C26.7003 75.4679 25.4461 75.3213 24.2295 75.5403C23.0129 75.7593 21.8886 76.3342 20.9988 77.1922C20.1089 78.0502 19.4935 79.1528 19.2303 80.3606C18.9671 81.5684 19.0679 82.8271 19.5201 83.9776C19.9722 85.128 20.7554 86.1186 21.7705 86.824C22.7857 87.5293 23.9871 87.9178 25.2231 87.9404C26.8804 87.9706 28.4818 87.3411 29.6751 86.1906C30.8684 85.04 31.5557 83.4626 31.5859 81.8053Z" fill="white"/>
<circle cx="26" cy="82" r="7" fill="white"/>
<circle cx="26" cy="82" r="7" fill="white"/>
<circle cx="26" cy="82" r="7" fill="white"/>
<circle cx="27" cy="19" r="7" fill="white"/>
<circle cx="27" cy="19" r="7" fill="white"/>
<circle cx="27" cy="19" r="7" fill="white"/>
<circle cx="76" cy="51" r="7" fill="white"/>
<circle cx="76" cy="51" r="7" fill="white"/>
<circle cx="76" cy="51" r="7" fill="white"/>
</g>
<defs>
<clipPath id="clip0_1184_8542">
<rect width="100" height="100" fill="white" transform="matrix(-0.0182186 0.999834 0.999834 0.0182186 1.82227 0)"/>
</clipPath>
</defs>
</svg>
