<svg width="100" height="100" viewBox="0 0 100 100" fill="none" xmlns="http://www.w3.org/2000/svg">
<path d="M93.7474 31.2031L83.3307 36.9071L72.9141 46.7594V80.5683H87.4974C90.9495 80.5683 93.7474 77.7827 93.7474 74.3458V31.2031Z" fill="#4CAF50"/>
<path d="M6.25 31.2031L13.7792 34.7499L27.0833 46.7594V80.5683H12.5C9.04792 80.5683 6.25 77.7827 6.25 74.3458V31.2031Z" fill="#1E88E5"/>
<path d="M72.9167 20.832L50 37.9439L27.0833 20.832L25 32.8622L27.0833 46.7591L50 63.871L72.9167 46.7591L75 32.8622L72.9167 20.832Z" fill="#E53935"/>
<path d="M6.25 23.114V31.2074L27.0833 46.7636V20.8366L20.575 15.9809C19.025 14.8235 17.1417 14.1992 15.2042 14.1992C10.2583 14.1992 6.25 18.1899 6.25 23.114Z" fill="#C62828"/>
<path d="M93.7474 23.114V31.2074L72.9141 46.7636V20.8366L79.4224 15.9809C80.9724 14.8235 82.8557 14.1992 84.7932 14.1992C89.7391 14.1992 93.7474 18.1899 93.7474 23.114Z" fill="#FBC02D"/>
</svg>
