<svg width="100" height="100" viewBox="0 0 100 100" fill="none" xmlns="http://www.w3.org/2000/svg">
<path d="M50 0C22.3859 0 0 22.3859 0 50C0 77.6141 22.3859 100 50 100C77.6141 100 100 77.6141 100 50C100 22.3859 77.6141 0 50 0ZM78.0813 48.4375C77.8656 39.7156 75.8719 31.4406 72.4359 23.9578C76.5797 22.3609 80.5125 20.3375 84.1781 17.9359C91.7156 25.9672 96.45 36.6484 96.8375 48.4375H78.0813ZM52.0828 96.8219C51.9109 96.8297 51.7359 96.8297 51.5625 96.8359V78.1797C56.7562 78.3156 61.7922 79.0875 66.5703 80.4766C62.7875 86.7828 57.8578 92.3187 52.0828 96.8219ZM69.6078 81.4703C73.175 82.7219 76.5797 84.3094 79.8 86.1859C73.5641 91.3266 65.9734 94.8781 57.6469 96.2453C62.3469 91.9703 66.3812 86.9875 69.6078 81.4703ZM33.4281 80.4766C38.2078 79.0859 43.2438 78.3156 48.4375 78.1797V96.8344C48.2641 96.8281 48.0891 96.8281 47.9172 96.8203C42.1406 92.3188 37.2125 86.7828 33.4281 80.4766ZM42.3516 96.2438C34.025 94.8781 26.4344 91.3266 20.1984 86.1844C23.4203 84.3094 26.8234 82.7203 30.3906 81.4703C33.6172 86.9875 37.6531 91.9703 42.3516 96.2438ZM3.16406 48.4375C3.55156 36.6484 8.28438 25.9672 15.8234 17.9359C19.4891 20.3359 23.4203 22.3594 27.5656 23.9578C24.1281 31.4406 22.1344 39.7156 21.9187 48.4375H3.16406ZM68.0781 22.1813C62.8516 23.8516 57.3063 24.7906 51.5625 24.9406V3.16406C51.7359 3.17031 51.9109 3.17031 52.0828 3.17812C58.6578 8.30312 64.1359 14.7703 68.0781 22.1813ZM57.6484 3.75625C66.9359 5.28125 75.3016 9.53125 81.9 15.6656C78.5 17.8391 74.875 19.6812 71.05 21.1328C67.6219 14.5719 63.0766 8.69063 57.6484 3.75625ZM48.4375 3.16406V24.9406C42.6922 24.7906 37.1469 23.8531 31.9219 22.1813C35.8641 14.7703 41.3422 8.30312 47.9172 3.17812C48.0891 3.17031 48.2641 3.17031 48.4375 3.16406ZM28.9516 21.1328C25.1266 19.6812 21.5 17.8391 18.1016 15.6656C24.7 9.53125 33.0641 5.28125 42.3531 3.75625C36.9234 8.69063 32.3781 14.5719 28.9516 21.1328ZM30.5187 25.0141C36.1781 26.8719 42.1937 27.9406 48.4375 28.0953V48.4375H25.0484C25.2656 40.0844 27.1922 32.1625 30.5187 25.0141ZM48.4375 51.5625V75.0562C42.6812 75.2 37.1172 76.0953 31.8516 77.6953C27.7063 69.8625 25.2938 60.9828 25.0484 51.5625H48.4375ZM51.5625 75.0562V51.5625H74.9516C74.7078 60.9828 72.2938 69.8625 68.1484 77.6969C62.8828 76.0953 57.3188 75.2 51.5625 75.0562ZM51.5625 48.4375V28.0937C57.8063 27.9391 63.8219 26.8719 69.4812 25.0125C72.8078 32.1609 74.7344 40.0844 74.9516 48.4359L51.5625 48.4375ZM3.16406 51.5625H21.9187C22.1594 61.3328 24.6375 70.5406 28.8672 78.7016C24.9672 80.1062 21.2563 81.8953 17.7594 84.0078C9.10469 75.8016 3.58438 64.3312 3.16406 51.5625ZM82.2406 84.0094C78.7437 81.8953 75.0328 80.1078 71.1328 78.7031C75.3625 70.5406 77.8406 61.3344 78.0813 51.5641H96.8359C96.4156 64.3312 90.8953 75.8016 82.2406 84.0094Z" fill="white"/>
</svg>
