<svg width="100" height="100" viewBox="0 0 100 100" fill="none" xmlns="http://www.w3.org/2000/svg">
<path d="M24.3044 58.4882V47.5785H70.6454C71.9797 47.5785 73.0554 46.5028 73.0554 45.1711V20.2151C73.0554 18.8859 71.9797 17.8102 70.6454 17.8102H24.3044V6.9031C24.3044 5.87394 23.6424 4.95337 22.6676 4.62497C21.6849 4.29657 20.6066 4.63014 19.986 5.45244L0.48614 31.2463C0.162909 31.6755 0 32.185 0 32.697C0 33.209 0.162909 33.721 0.48614 34.1502L19.986 59.9389C20.6066 60.7612 21.6849 61.0948 22.6676 60.7664C23.6476 60.438 24.3044 59.5252 24.3044 58.4882ZM5.41736 32.6995L19.4973 14.0685V20.2202C19.4973 21.5494 20.573 22.6251 21.9022 22.6251H68.2483V42.774H21.9022C20.573 42.774 19.4973 43.8497 19.4973 45.1789V51.3332L5.41736 32.6995ZM77.3273 95.378C76.3524 95.0496 75.6904 94.1368 75.6904 93.0998V82.1901H29.352C28.0203 82.1901 26.9446 81.1144 26.9446 79.7827V54.8292C26.9446 53.5001 28.0203 52.4244 29.352 52.4244H75.6904V41.5121C75.6904 40.4804 76.3524 39.5624 77.3273 39.234C78.3099 38.9056 79.3882 39.2392 80.0088 40.0615L99.5139 65.8527C100.16 66.7112 100.16 67.893 99.5139 68.7515L80.0088 94.5453C79.3882 95.3728 78.3099 95.7064 77.3273 95.378Z" fill="white"/>
</svg>
