<svg width="102" height="102" viewBox="0 0 102 102" fill="none" xmlns="http://www.w3.org/2000/svg">
<g clip-path="url(#clip0_1181_8464)">
<path d="M95.22 81.5373L95.2132 81.1623C95.1692 78.7249 94.6454 76.3201 93.6718 74.0852C92.6982 71.8503 91.2939 69.829 89.539 68.137C87.7841 66.4449 85.7131 65.1151 83.4442 64.2236C81.1753 63.3321 78.7529 62.8963 76.3156 62.9411L75.9406 62.9479C72.0824 63.0198 68.3427 64.2931 65.2423 66.5905C62.1418 68.8879 59.835 72.095 58.6432 75.7652L38.8621 76.1256C37.2047 76.1558 35.6033 75.5264 34.41 74.3759C33.2168 73.2253 32.5294 71.6479 32.4992 69.9905L32.4804 68.9563C36.1047 67.6315 39.2257 65.2094 41.4086 62.0273C43.5915 58.8453 44.7277 55.0616 44.659 51.2034L44.6521 50.8284C44.5803 46.9703 43.307 43.2305 41.0096 40.1301C38.7122 37.0296 35.5051 34.7228 31.8349 33.531L31.816 32.4968C31.7858 30.8394 32.4152 29.238 33.5658 28.0447C34.7164 26.8515 36.2938 26.1641 37.9511 26.1339L57.7322 25.7735C59.057 29.3978 61.4791 32.5188 64.6612 34.7017C67.8433 36.8846 71.6269 38.0208 75.4852 37.9521L75.8601 37.9452C78.2975 37.9012 80.7023 37.3775 82.9372 36.4039C85.1722 35.4303 87.1934 34.026 88.8855 32.2711C90.5776 30.5162 91.9073 28.4451 92.7989 26.1762C93.6904 23.9073 94.1262 21.485 94.0813 19.0476L94.0745 18.6727C94.0305 16.2353 93.5068 13.8305 92.5332 11.5956C91.5596 9.36063 90.1552 7.33941 88.4004 5.64733C86.6455 3.95525 84.5744 2.62547 82.3055 1.73395C80.0366 0.842435 77.6143 0.406641 75.1769 0.451464L74.802 0.458296C70.9438 0.53017 67.2041 1.80347 64.1036 4.10087C61.0032 6.39827 58.6964 9.60538 57.5045 13.2756L31.3495 13.7521C28.0679 13.8119 24.9446 15.1729 22.6665 17.5355C20.3884 19.8982 19.1422 23.069 19.202 26.3505L19.337 33.7587C15.7126 35.0835 12.5917 37.5056 10.4088 40.6877C8.22585 43.8698 7.08964 47.6534 7.15837 51.5116L7.1652 51.8866C7.23707 55.7448 8.51038 59.4845 10.8078 62.5849C13.1052 65.6854 16.3123 67.9922 19.9825 69.1841L20.1175 76.5922C20.1772 79.8737 21.5382 82.9971 23.9008 85.2752C26.2635 87.5533 29.4343 88.7995 32.7158 88.7397L58.8709 88.2631C60.1957 91.8874 62.6178 95.0084 65.7999 97.1913C68.982 99.3742 72.7656 100.51 76.6238 100.442L76.9988 100.435C79.4362 100.391 81.841 99.8671 84.0759 98.8935C86.3108 97.9199 88.3321 96.5156 90.0241 94.7607C91.7162 93.0058 93.046 90.9348 93.9375 88.6659C94.829 86.397 95.2648 83.9746 95.22 81.5373ZM69.0821 19.3156C69.0596 18.0797 69.404 16.8649 70.072 15.8247C70.7399 14.7846 71.7012 13.9658 72.8345 13.4721C73.9677 12.9783 75.2219 12.8316 76.4385 13.0507C77.655 13.2697 78.7794 13.8446 79.6692 14.7026C80.5591 15.5606 81.1745 16.6632 81.4377 17.871C81.7009 19.0788 81.6001 20.3375 81.1479 21.4879C80.6957 22.6384 79.9126 23.629 78.8975 24.3343C77.8823 25.0397 76.6808 25.4282 75.4449 25.4507C73.7876 25.4809 72.1861 24.8515 70.9929 23.701C69.7996 22.5504 69.1123 20.973 69.0821 19.3156ZM19.6597 51.4714C19.6372 50.2354 19.9817 49.0206 20.6496 47.9804C21.3175 46.9403 22.2789 46.1216 23.4121 45.6278C24.5453 45.134 25.7995 44.9874 27.0161 45.2064C28.2327 45.4254 29.357 46.0003 30.2468 46.8583C31.1367 47.7163 31.7521 48.8189 32.0153 50.0267C32.2786 51.2345 32.1777 52.4932 31.7255 53.6437C31.2734 54.7942 30.4902 55.7847 29.4751 56.4901C28.46 57.1954 27.2585 57.584 26.0225 57.6065C24.3652 57.6367 22.7638 57.0073 21.5705 55.8567C20.3772 54.7062 19.6899 53.1287 19.6597 51.4714ZM70.2207 81.8053C70.1982 80.5693 70.5427 79.3545 71.2106 78.3143C71.8785 77.2742 72.8399 76.4555 73.9731 75.9617C75.1064 75.4679 76.3606 75.3213 77.5771 75.5403C78.7937 75.7593 79.918 76.3342 80.8079 77.1922C81.6977 78.0502 82.3132 79.1528 82.5764 80.3606C82.8396 81.5684 82.7387 82.8271 82.2866 83.9776C81.8344 85.128 81.0512 86.1186 80.0361 86.824C79.021 87.5293 77.8195 87.9178 76.5836 87.9404C74.9262 87.9706 73.3248 87.3411 72.1315 86.1906C70.9383 85.04 70.2509 83.4626 70.2207 81.8053Z" fill="white"/>
</g>
<defs>
<clipPath id="clip0_1181_8464">
<rect width="100" height="100" fill="white" transform="translate(99.9844) rotate(88.9561)"/>
</clipPath>
</defs>
</svg>
