<svg width="100" height="100" viewBox="0 0 100 100" fill="none" xmlns="http://www.w3.org/2000/svg">
<path d="M13.2682 82.8246C18.8101 71.3411 28.59 63.1385 39.8368 59.0373C44.0747 57.3968 48.4757 56.4124 52.7136 55.9203H59.8855V78.2312C59.8855 80.0357 61.8415 81.02 63.4715 79.8717L98.027 50.8347C99.331 49.8504 99.331 47.5537 98.027 46.7335L63.4715 18.3527C62.1675 17.3684 59.8855 18.3527 59.8855 19.9932V42.4681H52.7136C48.3127 41.976 43.7487 40.8276 39.8368 39.3512C28.7529 35.0859 18.8101 27.0474 13.2682 15.5638C12.6162 13.9233 10.6602 13.2671 9.03021 13.9233L2.8363 16.5481C1.04332 17.3684 0.554327 19.173 1.53231 20.9775C7.40023 33.4454 16.8541 43.1243 27.938 49.1942C16.6911 55.2641 7.40023 64.9431 1.53231 77.575C0.717324 79.3795 0.880324 81.1841 2.8363 82.0043L9.03021 84.6292C10.6602 85.2854 12.6162 84.4651 13.2682 82.8246Z" fill="white"/>
</svg>
