<svg width="100" height="100" viewBox="0 0 100 100" fill="none" xmlns="http://www.w3.org/2000/svg">
<path d="M93.1268 95.2453L71.6613 88.7529L55.4739 98.5823L44.1796 98.5772L27.9824 88.7529L6.52676 95.2453L0 72.8655L6.52676 48.0271L0 27.0272L6.52676 1L40.0528 21.3461H59.6L93.1268 1L99.6535 27.0272L93.1268 48.0271L99.6535 72.8655L93.1268 95.2453Z" fill="#FF5C16"/>
<path d="M6.53125 1L40.058 21.3604L38.7249 35.3336L6.53125 1ZM27.9876 72.8748L42.739 84.2893L27.9876 88.7529V72.8748ZM41.5601 54.0037L38.7249 35.3429L20.577 48.0328L20.5672 48.0278V48.0371L20.6235 61.099L27.9827 54.0044L41.5601 54.0037ZM93.127 1L59.6003 21.3604L60.9291 35.3336L93.127 1ZM71.6714 72.8748L56.9193 84.2893L71.6714 88.7529V72.8748ZM79.0862 48.0364V48.0271L79.0819 48.0321L60.9341 35.3429L58.0989 54.0037H71.6707L79.0348 61.0976L79.0862 48.0364Z" fill="#FF5C16"/>
<path d="M27.9824 88.7542L6.52676 95.2466L0 72.8761H27.9824V88.7542ZM41.5549 54L45.6535 80.9779L39.9732 65.9775L20.6141 61.0989L27.9775 54.0007H41.5549V54ZM71.6704 88.7542L93.1268 95.2466L99.6535 72.8761H71.6704V88.7542ZM58.0986 54L54 80.9779L59.6796 65.9775L79.0394 61.0989L71.6711 54.0007H58.0986V54Z" fill="#E34807"/>
<path d="M0 72.867L6.52676 48.0287H20.562L20.6134 61.0949L39.9739 65.9734L45.6535 80.9731L42.7338 84.2765L27.9824 72.862H0V72.867ZM99.6535 72.867L93.1268 48.0287H79.0908L79.0394 61.0949L59.6803 65.9734L54 80.9731L56.919 84.2765L71.6711 72.862H99.6535V72.867ZM59.6 21.3477H40.0528L38.7254 35.3209L45.6542 80.9588H54L60.9331 35.3209L59.6 21.3477Z" fill="#FF8D5D"/>
<path d="M6.52676 1L0 27.0272L6.52676 48.0271H20.562L38.7197 35.3336L6.52676 1ZM37.4986 59.4173H31.1401L27.6782 62.8645L39.9782 65.9618L37.4986 59.413V59.4173ZM93.1268 1L99.6535 27.0272L93.1268 48.0271H79.0908L60.9338 35.3336L93.1268 1ZM62.1641 59.4173H68.5317L71.9937 62.8688L59.6796 65.9719L62.1641 59.4123V59.4173ZM55.469 89.6793L56.9197 84.2843L54 80.9809H45.6479L42.7289 84.2843L44.1789 89.6793" fill="#661800"/>
<path d="M55.4691 89.6797V98.5877H44.1797V89.6797H55.4691Z" fill="#C0C4CD"/>
<path d="M27.9883 88.7449L44.1897 98.5835V89.6755L42.739 84.2812L27.9883 88.7449ZM71.6721 88.7449L55.47 98.5835V89.6755L56.9207 84.2812L71.6721 88.7449Z" fill="#E7EBF6"/>
</svg>
