<svg width="100" height="100" viewBox="0 0 100 100" fill="none" xmlns="http://www.w3.org/2000/svg">
<g clip-path="url(#clip0_1182_8509)">
<path d="M100 0H0V100H100V0Z" fill="#AB9FF2"/>
<path fill-rule="evenodd" clip-rule="evenodd" d="M43.1572 63.9173C39.4328 69.6242 33.192 76.8462 24.8878 76.8462C20.9622 76.8462 17.1875 75.2301 17.1875 68.2101C17.1875 50.332 41.597 22.6562 64.2449 22.6562C77.1291 22.6562 82.263 31.5953 82.263 41.7464C82.263 54.7763 73.8074 69.6747 65.4025 69.6747C62.7351 69.6747 61.4266 68.2101 61.4266 65.887C61.4266 65.2809 61.5272 64.6244 61.7285 63.9173C58.8598 68.8162 53.3236 73.3614 48.1397 73.3614C44.3651 73.3614 42.4526 70.9878 42.4526 67.6546C42.4526 66.4425 42.7042 65.1799 43.1572 63.9173ZM62.6663 41.3943C62.6663 44.3523 60.9212 45.8313 58.9689 45.8313C56.987 45.8313 55.2715 44.3523 55.2715 41.3943C55.2715 38.4363 56.987 36.9573 58.9689 36.9573C60.9212 36.9573 62.6663 38.4363 62.6663 41.3943ZM73.7577 41.3945C73.7577 44.3524 72.0124 45.8314 70.0602 45.8314C68.0784 45.8314 66.3627 44.3524 66.3627 41.3945C66.3627 38.4366 68.0784 36.9576 70.0602 36.9576C72.0124 36.9576 73.7577 38.4366 73.7577 41.3945Z" fill="#FFFDF8"/>
</g>
<defs>
<clipPath id="clip0_1182_8509">
<rect width="100" height="100" fill="white"/>
</clipPath>
</defs>
</svg>
