<svg width="100" height="100" viewBox="0 0 100 100" fill="none" xmlns="http://www.w3.org/2000/svg">
<path d="M86.0694 25.9997L62.6875 2H23.7178C19.4133 2 15.9238 5.58168 15.9238 9.99991V89.999C15.9238 94.4173 19.4133 97.9989 23.7178 97.9989H78.2754C82.5799 97.9989 86.0694 94.4173 86.0694 89.999V25.9997Z" fill="#19B870"/>
<path d="M70.4788 25.9988C68.3572 25.9988 66.4387 25.1225 65.0332 23.7109L86.0667 45.3003V25.9988H70.4788Z" fill="url(#paint0_linear_1181_8444)"/>
<path opacity="0.1" d="M78.2754 96.9999H23.7178C19.4134 96.9999 15.9238 93.4182 15.9238 89V90C15.9238 94.4182 19.4134 97.9999 23.7178 97.9999H78.2754C82.5798 97.9999 86.0694 94.4182 86.0694 90V89C86.0694 93.4182 82.5798 96.9999 78.2754 96.9999Z" fill="black"/>
<path d="M62.6953 2V17.9998C62.6953 22.4181 66.1848 25.9997 70.4893 25.9997H86.0772L62.6953 2Z" fill="#80D8B0"/>
<path opacity="0.1" d="M70.4893 24.996C66.1848 24.996 62.6953 21.4143 62.6953 16.9961V17.9961C62.6953 22.4142 66.1848 25.996 70.4893 25.996H86.0772L85.1029 24.996H70.4893Z" fill="black"/>
<path opacity="0.2" d="M62.6875 2H23.7178C19.4134 2 15.9238 5.5815 15.9238 9.99991V10.9999C15.9238 6.58149 19.4134 2.99999 23.7178 2.99999H62.6875" fill="white"/>
<path d="M31.5078 38V77.9995H70.4775V38H31.5078ZM66.5806 49.9999H52.9412V42H66.5806V49.9999ZM52.9412 53.9998H66.5806V61.9997H52.9412V53.9998ZM49.0442 61.9997H35.4048V53.9998H49.0442V61.9997ZM49.0442 42V49.9999H35.4048V42H49.0442ZM35.4048 65.9997H49.0442V73.9996H35.4048V65.9997ZM52.9412 73.9996V65.9997H66.5806V73.9996H52.9412Z" fill="white"/>
<path d="M86.0694 25.9997L62.6875 2H23.7178C19.4133 2 15.9238 5.58168 15.9238 9.99991V89.999C15.9238 94.4173 19.4133 97.9989 23.7178 97.9989H78.2754C82.5799 97.9989 86.0694 94.4173 86.0694 89.999V25.9997Z" fill="url(#paint1_linear_1181_8444)"/>
<defs>
<linearGradient id="paint0_linear_1181_8444" x1="69.7344" y1="18.8856" x2="91.3164" y2="39.9119" gradientUnits="userSpaceOnUse">
<stop stop-opacity="0.1"/>
<stop offset="1" stop-opacity="0"/>
</linearGradient>
<linearGradient id="paint1_linear_1181_8444" x1="5.05152" y1="32.1537" x2="94.6617" y2="72.8638" gradientUnits="userSpaceOnUse">
<stop stop-color="white" stop-opacity="0.2"/>
<stop offset="1" stop-color="white" stop-opacity="0"/>
</linearGradient>
</defs>
</svg>
