<svg width="100" height="100" viewBox="0 0 100 100" fill="none" xmlns="http://www.w3.org/2000/svg">
<path d="M82.8131 46.8738C87.1275 46.8738 90.625 43.3763 90.625 39.0619C90.625 34.7475 87.1272 31.25 82.8128 31.25C78.4981 31.25 75 34.7478 75 39.0625V46.8738H82.8131ZM60.9375 46.8738C65.2522 46.8738 68.75 43.3759 68.75 39.0613V17.1875C68.75 12.8728 65.2522 9.375 60.9375 9.375C56.6228 9.375 53.125 12.8728 53.125 17.1875V39.0613C53.125 43.3759 56.6228 46.8738 60.9375 46.8738Z" fill="#2EB67D"/>
<path d="M17.1868 53.125C12.8725 53.125 9.375 56.6225 9.375 60.9369C9.375 65.2513 12.8728 68.7488 17.1872 68.7488C21.5019 68.7488 25 65.2509 25 60.9362V53.125H17.1868ZM39.0625 53.125C34.7478 53.125 31.25 56.6228 31.25 60.9375V82.8113C31.25 87.1259 34.7478 90.6238 39.0625 90.6238C43.3772 90.6238 46.875 87.1259 46.875 82.8113V60.9375C46.875 56.6228 43.3772 53.125 39.0625 53.125Z" fill="#E01E5A"/>
<path d="M53.127 82.8131C53.127 87.1275 56.6245 90.625 60.9388 90.625C65.2532 90.625 68.7507 87.1272 68.7507 82.8128C68.7507 78.4981 65.2529 75 60.9382 75H53.127V82.8131ZM53.127 60.9375C53.127 65.2522 56.6248 68.75 60.9395 68.75H82.8132C87.1279 68.75 90.6257 65.2522 90.6257 60.9375C90.6257 56.6228 87.1279 53.125 82.8132 53.125H60.9395C56.6248 53.125 53.127 56.6228 53.127 60.9375Z" fill="#ECB22E"/>
<path d="M46.8738 17.1868C46.8738 12.8725 43.3763 9.375 39.0619 9.375C34.7475 9.375 31.25 12.8728 31.25 17.1872C31.25 21.5019 34.7478 25 39.0625 25H46.8738V17.1868ZM46.8738 39.0625C46.8738 34.7478 43.3759 31.25 39.0613 31.25H17.1875C12.8728 31.25 9.375 34.7478 9.375 39.0625C9.375 43.3772 12.8728 46.875 17.1875 46.875H39.0613C43.3759 46.875 46.8738 43.3772 46.8738 39.0625Z" fill="#36C5F0"/>
</svg>
