<svg width="100" height="100" viewBox="0 0 100 100" fill="none" xmlns="http://www.w3.org/2000/svg">
<g clip-path="url(#clip0_1186_8558)">
<path d="M43.5833 79.1647C40.6899 83.3081 36.2741 86.1378 31.3009 87.0357C26.3276 87.9335 21.2012 86.8265 17.0416 83.9564C13.7958 81.6153 11.3584 78.3228 10.0671 74.5349C8.77575 70.747 8.69437 66.6513 9.83425 62.8151C10.9741 58.9789 13.2788 55.5922 16.429 53.124C19.5793 50.6559 23.4191 49.2286 27.4166 49.0397V54.9981C25.4594 55.1524 23.5613 55.7412 21.8603 56.7214C20.1593 57.7017 18.6982 59.0488 17.5833 60.6647C15.6163 63.501 14.8538 67.0014 15.463 70.3988C16.0722 73.7962 18.0033 76.8136 20.8333 78.7897C23.6805 80.7015 27.1695 81.4066 30.5357 80.7505C33.9018 80.0945 36.8707 78.1308 38.7916 75.2897C40.029 73.5003 40.8283 71.445 41.1249 69.2897V65.1231H64.3749L64.6666 64.6647C65.459 63.3383 66.626 62.2758 68.0208 61.6109C69.4156 60.9461 70.9758 60.7086 72.5052 60.9283C74.0347 61.148 75.465 61.8151 76.6162 62.8457C77.7674 63.8763 78.5881 65.2244 78.9751 66.7202C79.362 68.2161 79.298 69.793 78.7909 71.2526C78.2839 72.7122 77.3565 73.9892 76.1255 74.923C74.8945 75.8568 73.4148 76.4057 71.8726 76.5006C70.3304 76.5955 68.7945 76.2322 67.4583 75.4564C65.8189 74.5563 64.5827 73.0669 63.9999 71.2897H47.0416C46.4491 74.1267 45.2713 76.8089 43.5833 79.1647ZM73.9166 49.4147C76.5348 49.5243 79.1019 50.1754 81.4558 51.327C83.8098 52.4786 85.8993 54.1058 87.5927 56.1057C89.2861 58.1056 90.5465 60.4348 91.2943 62.9464C92.0421 65.4579 92.2611 68.0972 91.9375 70.6977C91.6139 73.2982 90.7547 75.8033 89.4141 78.055C88.0735 80.3066 86.2807 82.2559 84.1488 83.7798C82.0169 85.3037 79.5923 86.369 77.0279 86.9086C74.4635 87.4482 71.8152 87.4503 69.25 86.9147C66.3227 86.5735 63.5125 85.566 61.035 83.9698C58.5576 82.3736 56.4789 80.231 54.9583 77.7064L60.1249 74.9981C61.1938 76.6531 62.614 78.0524 64.2847 79.0966C65.9554 80.1408 67.8356 80.8042 69.7916 81.0397C71.4496 81.2449 73.1317 81.1215 74.7419 80.6767C76.3522 80.2318 77.8591 79.474 79.1765 78.4468C80.4939 77.4196 81.5961 76.1429 82.4202 74.6897C83.2442 73.2365 83.7739 71.6352 83.9791 69.9772C84.1843 68.3193 84.0609 66.6372 83.616 65.0269C83.1711 63.4167 82.4134 61.9098 81.3862 60.5924C80.3589 59.2749 79.0823 58.1727 77.6291 57.3487C76.1758 56.5247 74.5746 55.9949 72.9166 55.7897C70.7622 55.5472 68.5809 55.8038 66.5416 56.5397L62.9999 58.3731L52.2499 38.3314H51.3333C49.2558 38.2596 47.2918 37.3654 45.8736 35.8456C45.1714 35.093 44.6242 34.2095 44.2634 33.2455C43.9026 32.2815 43.7352 31.2559 43.7708 30.2272C43.8063 29.1985 44.0442 28.1869 44.4707 27.2502C44.8972 26.3134 45.5041 25.4698 46.2566 24.7676C47.7764 23.3493 49.7974 22.5929 51.8749 22.6647C53.9639 22.7513 55.9371 23.648 57.3761 25.1647C58.815 26.6815 59.6067 28.6991 59.5833 30.7897C59.504 32.5576 58.8284 34.2465 57.6666 35.5814L65.5833 50.2064C68.2728 49.3514 71.1142 49.0815 73.9166 49.4147ZM34.3749 38.0814C33.4064 35.7915 32.8985 33.3332 32.88 30.847C32.8615 28.3607 33.333 25.8952 34.2674 23.5911C35.2018 21.2871 36.5808 19.1896 38.3258 17.4185C40.0708 15.6474 42.1475 14.2374 44.4374 13.2689C46.7274 12.3004 49.1856 11.7924 51.6719 11.774C54.1581 11.7555 56.6237 12.2269 58.9277 13.1613C61.2318 14.0957 63.3292 15.4748 65.1003 17.2197C66.8714 18.9647 68.2815 21.0415 69.25 23.3314C70.4199 26.0329 70.9532 28.9672 70.8087 31.9076C70.6642 34.8481 69.8458 37.7159 68.4166 40.2897L63.2499 37.4981C64.1564 35.7499 64.6606 33.8212 64.7255 31.853C64.7904 29.8849 64.4143 27.9271 63.625 26.1231C63.0751 24.4651 62.1893 22.9384 61.023 21.6381C59.8567 20.3378 58.4348 19.2919 56.8462 18.5657C55.2576 17.8395 53.5363 17.4486 51.7898 17.4174C50.0434 17.3862 48.3093 17.7153 46.6957 18.3843C45.0821 19.0533 43.6238 20.0477 42.4118 21.3055C41.1997 22.5632 40.26 24.0574 39.6512 25.6946C39.0424 27.3318 38.7777 29.0769 38.8736 30.821C38.9694 32.5651 39.4238 34.2708 40.2083 35.8314C41.3551 38.4807 43.3284 40.6879 45.8333 42.1231L47.4583 42.9981L34.6666 63.8314C34.8312 64.0809 34.9708 64.3461 35.0833 64.6231C35.7669 66.0042 36.0279 67.5564 35.8336 69.0852C35.6393 70.614 34.9985 72.0515 33.9912 73.2178C32.9839 74.3842 31.6549 75.2274 30.1707 75.6421C28.6864 76.0568 27.1128 76.0245 25.6469 75.5492C24.1809 75.0739 22.8877 74.1768 21.9291 72.9701C20.9706 71.7634 20.3892 70.3007 20.2579 68.7653C20.1266 67.2298 20.4511 65.6897 21.1908 64.3377C21.9306 62.9858 23.0526 61.8821 24.4166 61.1647C25.9834 60.3175 27.8038 60.0659 29.5416 60.4564L39.1666 44.7481C37.087 42.9157 35.4489 40.6366 34.3749 38.0814Z" fill="#FFEFEF"/>
</g>
<defs>
<clipPath id="clip0_1186_8558">
<rect width="100" height="100" fill="white"/>
</clipPath>
</defs>
</svg>
