<svg width="100" height="100" viewBox="0 0 100 100" fill="none" xmlns="http://www.w3.org/2000/svg">
<path d="M26.6436 54.3735H45.0163V96.2708C35.3431 92.0382 27.6863 74.8928 26.6436 54.3735ZM54.2027 54.3735V96.2708C63.8483 92.0382 71.5097 74.8928 72.5478 54.3735H54.2027ZM45.0163 2.9375C35.3431 7.17017 27.6863 24.3155 26.6436 44.8348H45.0163V2.9375ZM71.8772 7.8375C78.1317 19.153 81.5456 31.86 81.8168 44.8348H95.5412C94.818 37.1856 92.2866 29.8271 88.1625 23.3855C84.0383 16.9439 78.4436 11.6099 71.8542 7.8375H71.8772ZM71.8772 91.3708C78.4622 87.5956 84.0525 82.2604 88.1725 75.819C92.2925 69.3776 94.8204 62.0206 95.5412 54.3735H81.7939C81.5226 67.3483 78.1088 80.0553 71.8542 91.3708H71.8772ZM54.2256 2.9375V44.8348H72.5754C71.5327 24.3155 63.8759 7.17017 54.2256 2.9375ZM27.3647 91.3708C21.1102 80.0553 17.6964 67.3483 17.4251 54.3735H3.67773C4.40098 62.0228 6.93238 69.3813 11.0565 75.8229C15.1806 82.2644 20.7754 87.5984 27.3647 91.3708ZM27.3647 7.8375C20.7754 11.6099 15.1806 16.9439 11.0565 23.3855C6.93238 29.8271 4.40098 37.1856 3.67773 44.8348H17.4251C17.6964 31.86 21.1102 19.153 27.3647 7.8375Z" fill="white"/>
</svg>
